<svg width="13" height="13" viewBox="0 0 13 13" fill="none" xmlns="http://www.w3.org/2000/svg">
<g clip-path="url(#clip0_170792_426)">
<path d="M11.742 5.09227L11.6812 4.83454H6.07939V7.20546H9.42641C9.07891 8.85558 7.46641 9.72418 6.14927 9.72418C5.19091 9.72418 4.18067 9.32106 3.51202 8.6731C3.15924 8.32577 2.87843 7.91228 2.68567 7.45628C2.49291 7.00029 2.39197 6.51075 2.38865 6.0157C2.38865 5.01702 2.83746 4.01808 3.49053 3.36099C4.14359 2.70389 5.1299 2.33624 6.11057 2.33624C7.23368 2.33624 8.03858 2.9326 8.33958 3.20458L10.0244 1.52865C9.53014 1.09435 8.17242 0 6.05628 0C4.42363 0 2.85816 0.625381 1.71382 1.76596C0.584531 2.88906 0 4.51312 0 6.02C0 7.52688 0.553088 9.06978 1.64744 10.2018C2.81677 11.409 4.47281 12.04 6.17803 12.04C7.72952 12.04 9.20012 11.4321 10.2482 10.3291C11.2786 9.24339 11.8116 7.74108 11.8116 6.1662C11.8116 5.50319 11.7449 5.10947 11.742 5.09227Z" fill="white"/>
</g>
<defs>
<clipPath id="clip0_170792_426">
<rect width="12.04" height="12.04" fill="white"/>
</clipPath>
</defs>
</svg>
