<svg width="13" height="13" viewBox="0 0 13 13" fill="none" xmlns="http://www.w3.org/2000/svg">
<g clip-path="url(#clip0_170792_424)">
<path d="M6.02 0C9.34474 0 12.04 2.69525 12.04 6.02C12.04 9.09784 9.73008 11.6359 6.74933 11.9959V7.85961L8.37786 7.85961L8.71568 6.02H6.74933V5.36938C6.74933 4.88331 6.84467 4.5468 7.0634 4.33181C7.28214 4.11681 7.62426 4.02333 8.11782 4.02333C8.24274 4.02333 8.35772 4.02457 8.45974 4.02706C8.60813 4.03067 8.72909 4.03691 8.8133 4.04577V2.37814C8.77965 2.36879 8.73992 2.35944 8.69542 2.35024C8.59459 2.32939 8.46924 2.30929 8.3345 2.29164C8.05293 2.25476 7.73032 2.22856 7.50462 2.22856C6.5931 2.22856 5.90422 2.42356 5.42337 2.82749C4.84303 3.31497 4.56571 4.10675 4.56571 5.22731V6.02H3.32434V7.85961H4.56571V11.8627C1.94362 11.2122 0 8.84325 0 6.02C0 2.69525 2.69525 0 6.02 0Z" fill="white"/>
</g>
<defs>
<clipPath id="clip0_170792_424">
<rect width="12.04" height="12.04" fill="white"/>
</clipPath>
</defs>
</svg>
